<?xml version="1.0" encoding="UTF-8" standalone="no"?>
<!DOCTYPE svg PUBLIC "-//W3C//DTD SVG 1.1//EN" "http://www.w3.org/Graphics/SVG/1.1/DTD/svg11.dtd">
<!-- Created with Inkscape (http://www.inkscape.org/) -->
<svg
   xmlns:svg="http://www.w3.org/2000/svg"
   xmlns:xlink="http://www.w3.org/1999/xlink"
   xmlns="http://www.w3.org/2000/svg"
   version="1.1"
   width="400"
   height="315"
   id="svg2483"
   xml:space="preserve"><defs
     id="defs2486"><linearGradient
       x1="0"
       y1="0"
       x2="1"
       y2="0"
       id="linearGradient2612"
       gradientUnits="userSpaceOnUse"
       gradientTransform="matrix(603.77954,0,0,-603.77954,-6.1e-5,793.70078)"
       spreadMethod="pad"><stop
         id="stop2614"
         style="stop-color:#f49e00;stop-opacity:1"
         offset="0" /><stop
         id="stop2616"
         style="stop-color:#fef6e6;stop-opacity:1"
         offset="1" /></linearGradient><linearGradient
       x1="0"
       y1="0"
       x2="1"
       y2="0"
       id="linearGradient2632"
       gradientUnits="userSpaceOnUse"
       gradientTransform="matrix(603.77954,0,0,-603.77954,603.77954,793.70078)"
       spreadMethod="pad"><stop
         id="stop2634"
         style="stop-color:#f49e00;stop-opacity:1"
         offset="0" /><stop
         id="stop2636"
         style="stop-color:#fef6e6;stop-opacity:1"
         offset="1" /></linearGradient><linearGradient
       x1="0"
       y1="0"
       x2="1"
       y2="0"
       id="linearGradient2652"
       gradientUnits="userSpaceOnUse"
       gradientTransform="matrix(603.77954,0,0,-603.77954,-6.1e-5,36.850403)"
       spreadMethod="pad"><stop
         id="stop2654"
         style="stop-color:#f49e00;stop-opacity:1"
         offset="0" /><stop
         id="stop2656"
         style="stop-color:#fef6e6;stop-opacity:1"
         offset="1" /></linearGradient><linearGradient
       x1="0"
       y1="0"
       x2="1"
       y2="0"
       id="linearGradient2672"
       gradientUnits="userSpaceOnUse"
       gradientTransform="matrix(603.77954,0,0,-603.77954,603.77954,36.850403)"
       spreadMethod="pad"><stop
         id="stop2674"
         style="stop-color:#f49e00;stop-opacity:1"
         offset="0" /><stop
         id="stop2676"
         style="stop-color:#fef6e6;stop-opacity:1"
         offset="1" /></linearGradient><clipPath
       id="clipPath3484"><path
         d="M 453.543,682.542 L 581.102,682.542 L 581.102,785.196 L 453.543,785.196 L 453.543,682.542 z"
         id="path3486" /></clipPath><clipPath
       id="clipPath3498"><path
         d="M 453.543,682.542 L 581.768,682.542 L 581.768,785.197 L 453.543,785.197 L 453.543,682.542 z"
         id="path3500" /></clipPath><clipPath
       id="clipPath3520"><path
         d="M 453.543,682.542 L 581.768,682.542 L 581.768,785.197 L 453.543,785.197 L 453.543,682.542 z"
         id="path3522" /></clipPath><clipPath
       id="clipPath3540"><path
         d="M 453.543,682.542 L 581.768,682.542 L 581.768,785.197 L 453.543,785.197 L 453.543,682.542 z"
         id="path3542" /></clipPath><linearGradient
       x1="0"
       y1="0"
       x2="1"
       y2="0"
       id="linearGradient5039"
       xlink:href="#linearGradient2672"
       gradientUnits="userSpaceOnUse"
       gradientTransform="matrix(603.77954,0,0,-603.77954,603.77954,36.850403)"
       spreadMethod="pad" /><linearGradient
       x1="0"
       y1="0"
       x2="1"
       y2="0"
       id="linearGradient5045"
       xlink:href="#linearGradient2652"
       gradientUnits="userSpaceOnUse"
       gradientTransform="matrix(603.77954,0,0,-603.77954,-6.1e-5,36.850403)"
       spreadMethod="pad" /><linearGradient
       x1="0"
       y1="0"
       x2="1"
       y2="0"
       id="linearGradient5051"
       xlink:href="#linearGradient2632"
       gradientUnits="userSpaceOnUse"
       gradientTransform="matrix(603.77954,0,0,-603.77954,603.77954,793.70078)"
       spreadMethod="pad" /><linearGradient
       x1="0"
       y1="0"
       x2="1"
       y2="0"
       id="linearGradient5057"
       xlink:href="#linearGradient2612"
       gradientUnits="userSpaceOnUse"
       gradientTransform="matrix(603.77954,0,0,-603.77954,-6.1e-5,793.70078)"
       spreadMethod="pad" /></defs><g
     transform="matrix(1.25,0,0,-1.25,0,1073.6225)"
     id="g2492"><g
       id="g5440"><path
         d="M 126.94521,851.16149 C 126.94521,851.16149 131.6616,854.04232 133.01051,850.39375 C 134.35941,846.74518 135.31031,843.77879 137.23596,841.18557 C 139.1616,838.59474 143.58962,831.88232 144.74548,829.57909 C 145.90135,827.27348 148.77789,820.65852 150.1268,818.06768 C 151.47332,815.47447 155.61297,806.25441 155.61297,801.27239 C 155.61297,796.29037 156.38513,791.68153 154.36416,791.10632 C 152.34081,790.52873 152.52432,789.28085 149.64539,793.60208 C 146.76646,797.92332 136.66875,822.37703 134.45474,826.8908 C 132.24073,831.40219 126.27076,845.97744 126.17543,847.89799 C 126.07772,849.81854 126.94521,851.16149 126.94521,851.16149"
         id="path3488"
         style="fill:#000000;fill-opacity:1;fill-rule:nonzero;stroke:none" /><path
         d="M 126.94521,851.16149 C 126.94521,851.16149 131.6616,854.04232 133.01051,850.39375 C 134.35941,846.74518 135.31031,843.77879 137.23596,841.18557 C 139.1616,838.59474 143.58962,831.88232 144.74548,829.57909 C 145.90135,827.27348 148.77789,820.65852 150.1268,818.06768 C 151.47332,815.47447 155.61297,806.25441 155.61297,801.27239 C 155.61297,796.29037 156.38513,791.68153 154.36416,791.10632 C 152.34081,790.52873 152.52432,789.28085 149.64539,793.60208 C 146.76646,797.92332 136.66875,822.37703 134.45474,826.8908 C 132.24073,831.40219 126.27076,845.97744 126.17543,847.89799 C 126.07772,849.81854 126.94521,851.16149 126.94521,851.16149 z"
         id="path3490"
         style="fill:none;stroke:#000000;stroke-width:0.35700998;stroke-linecap:butt;stroke-linejoin:miter;stroke-miterlimit:3.86400008;stroke-dasharray:none;stroke-opacity:1" /><path
         d="M 125.51528,851.8508 C 125.51528,851.8508 130.23167,854.72925 131.58057,851.08068 C 132.92709,847.43211 133.88038,844.46572 135.80602,841.87488 C 137.73167,839.28166 142.15969,832.56925 143.31555,830.26602 C 144.47141,827.96279 147.34796,821.34545 148.69686,818.75461 C 150.04338,816.1614 154.18304,806.94371 154.18304,801.95932 C 154.18304,796.9773 154.9552,792.36846 152.93185,791.79325 C 150.91088,791.21566 151.092,789.96778 148.21545,794.28901 C 145.33652,798.61024 135.23882,823.06396 133.02481,827.57773 C 130.80841,832.08911 124.84083,846.66437 124.74311,848.58492 C 124.64779,850.50546 125.51528,851.8508 125.51528,851.8508"
         id="path3492"
         style="fill:#f49e00;fill-opacity:1;fill-rule:nonzero;stroke:none" /><g
         transform="matrix(2.3832205,0,0,2.3769166,-1072.8943,-1011.4474)"
         id="g3494"><g
           clip-path="url(#clipPath3498)"
           id="g3496"><path
             d="M 502.853,783.914 C 502.853,783.914 504.832,785.125 505.398,783.59 C 505.963,782.055 506.363,780.807 507.171,779.717 C 507.979,778.626 509.837,775.802 510.322,774.833 C 510.807,773.864 512.014,771.08 512.58,769.99 C 513.145,768.899 514.882,765.021 514.882,762.924 C 514.882,760.828 515.206,758.889 514.357,758.647 C 513.509,758.404 513.585,757.879 512.378,759.697 C 511.17,761.515 506.933,771.803 506.004,773.702 C 505.074,775.6 502.57,781.732 502.529,782.54 C 502.489,783.348 502.853,783.914 502.853,783.914 z"
             id="path3502"
             style="fill:none;stroke:#f49e00;stroke-width:0.15000001;stroke-linecap:butt;stroke-linejoin:miter;stroke-miterlimit:3.86400008;stroke-dasharray:none;stroke-opacity:1" /></g></g><path
         d="M 48.227437,817.10028 C 49.838494,816.69858 57.962893,813.18312 60.984817,812.07548 C 64.004357,810.97259 69.709787,809.30162 74.445246,807.69244 C 79.178322,806.08565 85.250768,803.73963 92.502908,800.66152 C 99.755048,797.58342 110.73454,791.45573 113.51815,789.44485 C 116.30175,787.43636 120.63206,783.15316 120.93473,782.44959 C 121.2374,781.74602 121.33988,780.77624 119.62634,780.74296 C 114.69069,780.64076 107.67449,784.45808 97.438557,788.54163 C 90.12207,791.4581 92.402812,790.75216 85.48909,793.16235 C 78.572984,795.57492 71.056306,798.95252 67.429045,801.16305 C 63.804166,803.37359 61.487676,804.78072 59.876619,805.38208 C 58.263179,805.98582 55.782246,806.68701 54.774144,807.19091 C 53.768425,807.69244 45.543931,811.07242 45.141167,811.97565 C 44.738402,812.88125 43.062998,815.09178 44.838498,816.39671 C 46.61638,817.70164 46.61638,817.50198 48.227437,817.10028"
         id="path3504"
         style="fill:#000000;fill-opacity:1;fill-rule:nonzero;stroke:none" /><path
         d="M 48.227437,817.10028 C 49.838494,816.69858 57.962893,813.18312 60.984817,812.07548 C 64.004357,810.97259 69.709787,809.30162 74.445246,807.69244 C 79.178322,806.08565 85.250768,803.73963 92.502908,800.66152 C 99.755048,797.58342 110.73454,791.45573 113.51815,789.44485 C 116.30175,787.43636 120.63206,783.15316 120.93473,782.44959 C 121.2374,781.74602 121.33988,780.77624 119.62634,780.74296 C 114.69069,780.64076 107.67449,784.45808 97.438557,788.54163 C 90.12207,791.4581 92.402812,790.75216 85.48909,793.16235 C 78.572984,795.57492 71.056306,798.95252 67.429045,801.16305 C 63.804166,803.37359 61.487676,804.78072 59.876619,805.38208 C 58.263179,805.98582 55.782246,806.68701 54.774144,807.19091 C 53.768425,807.69244 45.543931,811.07242 45.141167,811.97565 C 44.738402,812.88125 43.062998,815.09178 44.838498,816.39671 C 46.61638,817.70164 46.61638,817.50198 48.227437,817.10028 z"
         id="path3506"
         style="fill:none;stroke:#000000;stroke-width:0.35700998;stroke-linecap:butt;stroke-linejoin:miter;stroke-miterlimit:3.86400008;stroke-dasharray:none;stroke-opacity:1" /><path
         d="M 46.318478,819.48433 C 47.931918,819.08263 56.053933,815.56479 59.075857,814.45952 C 62.097781,813.35664 67.800827,811.68329 72.536286,810.07649 C 77.269362,808.46969 83.341808,806.1213 90.593948,803.04557 C 97.846088,799.96746 108.82558,793.83977 111.60919,791.8289 C 114.39279,789.82041 118.72548,785.5372 119.02577,784.83364 C 119.32844,784.13007 119.4333,783.16029 117.71738,783.12463 C 112.78173,783.0248 105.76791,786.84213 95.529598,790.92567 C 88.215494,793.84215 90.493853,793.13383 83.58013,795.5464 C 76.666407,797.95659 69.147347,801.33657 65.522468,803.5471 C 61.895207,805.75763 59.578717,807.16239 57.967659,807.76613 C 56.356602,808.36986 53.873287,809.07105 52.865184,809.57496 C 51.859465,810.07649 43.634971,813.45647 43.232207,814.35969 C 42.829443,815.2653 41.154039,817.47345 42.931921,818.78076 C 44.707421,820.08569 44.707421,819.88603 46.318478,819.48433"
         id="path3508"
         style="fill:#f49e00;fill-opacity:1;fill-rule:nonzero;stroke:none" /><path
         d="M 46.318478,819.48433 C 47.931918,819.08263 56.053933,815.56479 59.075857,814.45952 C 62.097781,813.35664 67.800827,811.68329 72.536286,810.07649 C 77.269362,808.46969 83.341808,806.1213 90.593948,803.04557 C 97.846088,799.96746 108.82558,793.83977 111.60919,791.8289 C 114.39279,789.82041 118.72548,785.5372 119.02577,784.83364 C 119.32844,784.13007 119.4333,783.16029 117.71738,783.12463 C 112.78173,783.0248 105.76791,786.84213 95.529598,790.92567 C 88.215494,793.84215 90.493853,793.13383 83.58013,795.5464 C 76.666407,797.95659 69.147347,801.33657 65.522468,803.5471 C 61.895207,805.75763 59.578717,807.16239 57.967659,807.76613 C 56.356602,808.36986 53.873287,809.07105 52.865184,809.57496 C 51.859465,810.07649 43.634971,813.45647 43.232207,814.35969 C 42.829443,815.2653 41.154039,817.47345 42.931921,818.78076 C 44.707421,820.08569 44.707421,819.88603 46.318478,819.48433 z"
         id="path3510"
         style="fill:none;stroke:#f49e00;stroke-width:0.35700998;stroke-linecap:butt;stroke-linejoin:miter;stroke-miterlimit:3.86400008;stroke-dasharray:none;stroke-opacity:1" /><path
         d="M 18.301337,741.14116 C 18.301337,741.14116 62.884243,744.49974 74.502443,745.01315 C 86.120643,745.52894 101.78555,746.2539 103.03198,743.93403 C 104.08774,741.9707 102.77459,737.92756 93.441897,735.99751 C 85.84419,734.42637 68.408548,730.20258 40.875202,729.86031 C 26.780836,729.34452 23.951953,728.44367 19.209344,728.44367 C 14.464352,728.44367 10.465308,727.76862 9.6049658,734.11261 C 8.7446232,740.45423 14.347575,740.96764 15.722693,741.14116 C 17.097811,741.31229 18.301337,741.14116 18.301337,741.14116"
         id="path3512"
         style="fill:#000000;fill-opacity:1;fill-rule:nonzero;stroke:none" /><path
         d="M 18.301337,741.14116 C 18.301337,741.14116 62.884243,744.49974 74.502443,745.01315 C 86.120643,745.52894 101.78555,746.2539 103.03198,743.93403 C 104.08774,741.9707 102.77459,737.92756 93.441897,735.99751 C 85.84419,734.42637 68.408548,730.20258 40.875202,729.86031 C 26.780836,729.34452 23.951953,728.44367 19.209344,728.44367 C 14.464352,728.44367 10.465308,727.76862 9.6049658,734.11261 C 8.7446232,740.45423 14.347575,740.96764 15.722693,741.14116 C 17.097811,741.31229 18.301337,741.14116 18.301337,741.14116 z"
         id="path3514"
         style="fill:none;stroke:#000000;stroke-width:0.35700998;stroke-linecap:butt;stroke-linejoin:miter;stroke-miterlimit:3.86400008;stroke-dasharray:none;stroke-opacity:1" /><g
         transform="matrix(2.3832205,0,0,2.3769166,-1072.8943,-1011.4474)"
         id="g3516"><g
           clip-path="url(#clipPath3520)"
           id="g3518"><path
             d="M 457.305,737.857 C 457.305,737.857 476.012,739.271 480.887,739.487 C 485.762,739.704 492.335,740.009 492.858,739.033 C 493.301,738.207 492.75,736.506 488.834,735.694 C 485.646,735.033 478.33,733.256 466.777,733.112 C 460.863,732.895 459.676,732.516 457.685,732.516 C 455.695,732.516 454.016,732.233 453.656,734.901 C 453.295,737.569 455.646,737.785 456.223,737.857 C 456.8,737.93 457.305,737.857 457.305,737.857"
             id="path3524"
             style="fill:#f49e00;fill-opacity:1;fill-rule:nonzero;stroke:none" /><path
             d="M 457.305,737.857 C 457.305,737.857 476.012,739.271 480.887,739.487 C 485.762,739.704 492.335,740.009 492.858,739.033 C 493.301,738.207 492.75,736.506 488.834,735.694 C 485.646,735.033 478.33,733.256 466.777,733.112 C 460.863,732.895 459.676,732.516 457.685,732.516 C 455.695,732.516 454.016,732.233 453.656,734.901 C 453.295,737.569 455.646,737.785 456.223,737.857 C 456.8,737.93 457.305,737.857 457.305,737.857 z"
             id="path3526"
             style="fill:none;stroke:#f49e00;stroke-width:0.15000001;stroke-linecap:butt;stroke-linejoin:miter;stroke-miterlimit:3.86400008;stroke-dasharray:none;stroke-opacity:1" /></g></g><path
         d="M 57.157364,698.16888 C 58.52295,698.8154 69.302256,704.31083 75.503396,707.12748 C 81.702152,709.94175 88.077267,713.24091 90.68451,713.88505 C 93.294137,714.5292 98.878023,716.10747 101.34227,715.81986 C 103.80652,715.53226 105.52959,713.74244 104.59537,711.44871 C 103.66115,709.15499 99.833694,705.97943 96.168301,704.26092 C 92.502908,702.54003 78.880419,696.4266 75.789382,695.85376 C 72.700729,695.28093 68.151161,694.42048 65.925233,693.77634 C 63.696922,693.12982 59.171186,691.19501 58.306077,690.98108 C 57.445734,690.76716 54.909988,689.04627 52.896166,690.55086 C 50.884728,692.05545 51.173098,693.63372 51.387588,695.13593 C 51.604461,696.6429 55.791779,697.52236 57.157364,698.16888"
         id="path3528"
         style="fill:#000000;fill-opacity:1;fill-rule:nonzero;stroke:none" /><path
         d="M 57.157364,698.16888 C 58.52295,698.8154 69.302256,704.31083 75.503396,707.12748 C 81.702152,709.94175 88.077267,713.24091 90.68451,713.88505 C 93.294137,714.5292 98.878023,716.10747 101.34227,715.81986 C 103.80652,715.53226 105.52959,713.74244 104.59537,711.44871 C 103.66115,709.15499 99.833694,705.97943 96.168301,704.26092 C 92.502908,702.54003 78.880419,696.4266 75.789382,695.85376 C 72.700729,695.28093 68.151161,694.42048 65.925233,693.77634 C 63.696922,693.12982 59.171186,691.19501 58.306077,690.98108 C 57.445734,690.76716 54.909988,689.04627 52.896166,690.55086 C 50.884728,692.05545 51.173098,693.63372 51.387588,695.13593 C 51.604461,696.6429 55.791779,697.52236 57.157364,698.16888 z"
         id="path3530"
         style="fill:none;stroke:#000000;stroke-width:0.35700998;stroke-linecap:butt;stroke-linejoin:miter;stroke-miterlimit:3.86400008;stroke-dasharray:none;stroke-opacity:1" /><path
         d="M 55.153076,699.78756 C 56.518661,700.4317 67.297968,705.92951 73.499107,708.74616 C 79.700247,711.5628 86.072979,714.85959 88.682605,715.50373 C 91.289848,716.14788 96.873734,717.72615 99.337984,717.43854 C 101.80223,717.15094 103.5253,715.36112 102.59108,713.06739 C 101.65924,710.77367 97.829406,707.59811 94.164012,705.8796 C 90.498619,704.16109 76.876131,698.04766 73.785094,697.47244 C 70.69644,696.90198 66.146872,696.03916 63.920944,695.39502 C 61.692633,694.75087 57.166897,692.81606 56.304172,692.59976 C 55.441446,692.38584 52.905699,690.66733 50.894261,692.16954 C 48.88044,693.67413 49.168809,695.2524 49.383299,696.75699 C 49.600172,698.26158 53.787491,699.14342 55.153076,699.78756"
         id="path3532"
         style="fill:#f49e00;fill-opacity:1;fill-rule:nonzero;stroke:none" /><path
         d="M 55.153076,699.78756 C 56.518661,700.4317 67.297968,705.92951 73.499107,708.74616 C 79.700247,711.5628 86.072979,714.85959 88.682605,715.50373 C 91.289848,716.14788 96.873734,717.72615 99.337984,717.43854 C 101.80223,717.15094 103.5253,715.36112 102.59108,713.06739 C 101.65924,710.77367 97.829406,707.59811 94.164012,705.8796 C 90.498619,704.16109 76.876131,698.04766 73.785094,697.47244 C 70.69644,696.90198 66.146872,696.03916 63.920944,695.39502 C 61.692633,694.75087 57.166897,692.81606 56.304172,692.59976 C 55.441446,692.38584 52.905699,690.66733 50.894261,692.16954 C 48.88044,693.67413 49.168809,695.2524 49.383299,696.75699 C 49.600172,698.26158 53.787491,699.14342 55.153076,699.78756 z"
         id="path3534"
         style="fill:none;stroke:#f49e00;stroke-width:0.35700998;stroke-linecap:butt;stroke-linejoin:miter;stroke-miterlimit:3.86400008;stroke-dasharray:none;stroke-opacity:1" /><g
         transform="matrix(2.3832205,0,0,2.3769166,-1072.8943,-1011.4474)"
         id="g3536"><g
           clip-path="url(#clipPath3540)"
           id="g3538"><path
             d="M 526.918,756.506 C 526.918,756.506 532.157,770.247 534.442,774.485 C 536.729,778.723 539.554,783.783 540.119,784.194 C 540.684,784.605 542.149,785.324 542.97,784.194 C 543.792,783.064 544.562,782.575 543.33,780.624 C 542.097,778.672 539.811,774.203 538.732,771.865 C 537.653,769.528 532.157,759.024 531.079,757.611 C 530,756.198 529.486,755.89 529.486,755.89 C 529.486,755.89 534.572,755.247 537.653,751.601 C 540.736,747.954 543.535,743.716 544.203,740.403 C 544.871,737.089 545.024,735.291 544.152,734.572 C 543.278,733.853 540.427,732.775 539.349,734.624 C 538.27,736.473 538.887,738.297 538.27,739.889 C 537.653,741.481 535.393,746.207 532.85,747.851 C 530.308,749.495 527.02,750.83 523.656,750.933 C 520.291,751.036 516.207,751.755 510.685,749.341 C 508.745,748.492 506.036,747.414 504.547,745.411 C 503.057,743.408 500.977,740.094 501.388,735.291 C 501.799,730.488 501.824,728.048 502.62,726.508 C 503.417,724.967 503.417,725.172 503.417,725.172 C 503.417,725.172 503.545,723.785 502.672,724.402 C 501.799,725.018 496.121,729.104 496.585,738.605 C 496.842,743.87 498.614,746.67 500.103,748.313 C 501.593,749.957 503.75,752.243 507.012,753.733 C 510.274,755.222 514.744,756.763 517.569,756.917 C 520.394,757.071 523.913,757.123 524.992,756.866 C 526.07,756.609 526.918,756.506 526.918,756.506"
             id="path3544"
             style="fill:#000000;fill-opacity:1;fill-rule:nonzero;stroke:none" /><path
             d="M 526.918,756.506 C 526.918,756.506 532.157,770.247 534.442,774.485 C 536.729,778.723 539.554,783.783 540.119,784.194 C 540.684,784.605 542.149,785.324 542.97,784.194 C 543.792,783.064 544.562,782.575 543.33,780.624 C 542.097,778.672 539.811,774.203 538.732,771.865 C 537.653,769.528 532.157,759.024 531.079,757.611 C 530,756.198 529.486,755.89 529.486,755.89 C 529.486,755.89 534.572,755.247 537.653,751.601 C 540.736,747.954 543.535,743.716 544.203,740.403 C 544.871,737.089 545.024,735.291 544.152,734.572 C 543.278,733.853 540.427,732.775 539.349,734.624 C 538.27,736.473 538.887,738.297 538.27,739.889 C 537.653,741.481 535.393,746.207 532.85,747.851 C 530.308,749.495 527.02,750.83 523.656,750.933 C 520.291,751.036 516.207,751.755 510.685,749.341 C 508.745,748.492 506.036,747.414 504.547,745.411 C 503.057,743.408 500.977,740.094 501.388,735.291 C 501.799,730.488 501.824,728.048 502.62,726.508 C 503.417,724.967 503.417,725.172 503.417,725.172 C 503.417,725.172 503.545,723.785 502.672,724.402 C 501.799,725.018 496.121,729.104 496.585,738.605 C 496.842,743.87 498.614,746.67 500.103,748.313 C 501.593,749.957 503.75,752.243 507.012,753.733 C 510.274,755.222 514.744,756.763 517.569,756.917 C 520.394,757.071 523.913,757.123 524.992,756.866 C 526.07,756.609 526.918,756.506 526.918,756.506 z"
             id="path3546"
             style="fill:none;stroke:#000000;stroke-width:0.15000001;stroke-linecap:butt;stroke-linejoin:miter;stroke-miterlimit:3.86400008;stroke-dasharray:none;stroke-opacity:1" /><path
             d="M 526.274,756.828 C 526.274,756.828 531.514,770.569 533.799,774.807 C 536.086,779.045 538.91,784.105 539.475,784.515 C 540.041,784.927 541.505,785.645 542.327,784.515 C 543.148,783.386 543.92,782.897 542.686,780.945 C 541.453,778.993 539.167,774.525 538.09,772.187 C 537.011,769.85 531.514,759.346 530.435,757.933 C 529.356,756.52 528.842,756.211 528.842,756.211 C 528.842,756.211 533.928,755.569 537.011,751.922 C 540.092,748.275 542.891,744.038 543.56,740.724 C 544.227,737.411 544.381,735.613 543.508,734.894 C 542.634,734.175 539.784,733.096 538.705,734.945 C 537.626,736.795 538.243,738.619 537.626,740.211 C 537.011,741.803 534.75,746.529 532.208,748.173 C 529.665,749.816 526.378,751.152 523.012,751.255 C 519.648,751.358 515.564,752.076 510.042,749.662 C 508.101,748.814 505.393,747.736 503.904,745.733 C 502.414,743.73 500.333,740.416 500.744,735.613 C 501.155,730.81 501.181,728.37 501.977,726.829 C 502.773,725.288 502.773,725.494 502.773,725.494 C 502.773,725.494 502.902,724.107 502.028,724.723 C 501.155,725.34 495.478,729.426 495.941,738.927 C 496.198,744.192 497.971,746.991 499.46,748.635 C 500.95,750.279 503.107,752.565 506.369,754.054 C 509.631,755.544 514.1,757.085 516.926,757.239 C 519.75,757.393 523.269,757.444 524.348,757.188 C 525.427,756.931 526.274,756.828 526.274,756.828"
             id="path3548"
             style="fill:#f49e00;fill-opacity:1;fill-rule:nonzero;stroke:none" /><path
             d="M 526.274,756.828 C 526.274,756.828 531.514,770.569 533.799,774.807 C 536.086,779.045 538.91,784.105 539.475,784.515 C 540.041,784.927 541.505,785.645 542.327,784.515 C 543.148,783.386 543.92,782.897 542.686,780.945 C 541.453,778.993 539.167,774.525 538.09,772.187 C 537.011,769.85 531.514,759.346 530.435,757.933 C 529.356,756.52 528.842,756.211 528.842,756.211 C 528.842,756.211 533.928,755.569 537.011,751.922 C 540.092,748.275 542.891,744.038 543.56,740.724 C 544.227,737.411 544.381,735.613 543.508,734.894 C 542.634,734.175 539.784,733.096 538.705,734.945 C 537.626,736.795 538.243,738.619 537.626,740.211 C 537.011,741.803 534.75,746.529 532.208,748.173 C 529.665,749.816 526.378,751.152 523.012,751.255 C 519.648,751.358 515.564,752.076 510.042,749.662 C 508.101,748.814 505.393,747.736 503.904,745.733 C 502.414,743.73 500.333,740.416 500.744,735.613 C 501.155,730.81 501.181,728.37 501.977,726.829 C 502.773,725.288 502.773,725.494 502.773,725.494 C 502.773,725.494 502.902,724.107 502.028,724.723 C 501.155,725.34 495.478,729.426 495.941,738.927 C 496.198,744.192 497.971,746.991 499.46,748.635 C 500.95,750.279 503.107,752.565 506.369,754.054 C 509.631,755.544 514.1,757.085 516.926,757.239 C 519.75,757.393 523.269,757.444 524.348,757.188 C 525.427,756.931 526.274,756.828 526.274,756.828 z"
             id="path3550"
             style="fill:none;stroke:#f49e00;stroke-width:0.15000001;stroke-linecap:butt;stroke-linejoin:miter;stroke-miterlimit:3.86400008;stroke-dasharray:none;stroke-opacity:1" /></g></g><path
         d="M 242.96753,795.43706 C 242.96753,795.43706 246.73064,797.44318 250.37935,799.84386 C 254.02806,802.24455 259.33311,806.75831 262.30975,806.27818 C 265.28163,805.79804 266.53997,804.88768 267.49564,801.47681 C 268.6515,797.35999 264.90746,795.9172 262.69107,794.57424 C 260.47706,793.22891 253.26781,788.34434 251.14913,786.42142 C 249.03045,784.50087 243.24399,780.26758 240.46277,777.97385 C 237.67917,775.67775 234.97421,774.23734 231.71158,772.02919 C 228.44895,769.82103 227.58385,768.47807 224.11388,768.38062 C 220.65106,768.28554 217.56955,769.54293 219.01617,773.27707 C 220.45802,777.0112 224.31883,780.8523 226.90939,782.67777 C 229.49757,784.50087 233.73494,788.52499 234.98613,789.58034 C 236.23732,790.63807 242.96753,795.43706 242.96753,795.43706"
         id="path3552"
         style="fill:#000000;fill-opacity:1;fill-rule:nonzero;stroke:none" /><path
         d="M 242.96753,795.43706 C 242.96753,795.43706 246.73064,797.44318 250.37935,799.84386 C 254.02806,802.24455 259.33311,806.75831 262.30975,806.27818 C 265.28163,805.79804 266.53997,804.88768 267.49564,801.47681 C 268.6515,797.35999 264.90746,795.9172 262.69107,794.57424 C 260.47706,793.22891 253.26781,788.34434 251.14913,786.42142 C 249.03045,784.50087 243.24399,780.26758 240.46277,777.97385 C 237.67917,775.67775 234.97421,774.23734 231.71158,772.02919 C 228.44895,769.82103 227.58385,768.47807 224.11388,768.38062 C 220.65106,768.28554 217.56955,769.54293 219.01617,773.27707 C 220.45802,777.0112 224.31883,780.8523 226.90939,782.67777 C 229.49757,784.50087 233.73494,788.52499 234.98613,789.58034 C 236.23732,790.63807 242.96753,795.43706 242.96753,795.43706 z"
         id="path3554"
         style="fill:none;stroke:#000000;stroke-width:0.35700998;stroke-linecap:butt;stroke-linejoin:miter;stroke-miterlimit:3.86400008;stroke-dasharray:none;stroke-opacity:1" /><path
         d="M 241.03713,797.36236 C 241.03713,797.36236 244.80261,799.36848 248.44894,801.76917 C 252.10003,804.16748 257.4027,808.68124 260.37934,808.2011 C 263.3536,807.72097 264.60956,806.81298 265.56761,803.39973 C 266.72109,799.28291 262.97944,797.8425 260.76304,796.49717 C 258.54903,795.15183 251.33979,790.26727 249.2211,788.34672 C 247.10242,786.42617 241.31596,782.1905 238.53474,779.89678 C 235.75114,777.60306 233.04619,776.16264 229.78117,773.95211 C 226.52093,771.74396 225.65582,770.401 222.18823,770.30354 C 218.72303,770.20847 215.64391,771.46823 217.08338,775.20237 C 218.52999,778.93651 222.39081,782.7776 224.97899,784.6007 C 227.56955,786.42617 231.80453,790.44791 233.0581,791.50564 C 234.30929,792.56099 241.03713,797.36236 241.03713,797.36236"
         id="path3556"
         style="fill:#f49e00;fill-opacity:1;fill-rule:nonzero;stroke:none" /><path
         d="M 241.03713,797.36236 C 241.03713,797.36236 244.80261,799.36848 248.44894,801.76917 C 252.10003,804.16748 257.4027,808.68124 260.37934,808.2011 C 263.3536,807.72097 264.60956,806.81298 265.56761,803.39973 C 266.72109,799.28291 262.97944,797.8425 260.76304,796.49717 C 258.54903,795.15183 251.33979,790.26727 249.2211,788.34672 C 247.10242,786.42617 241.31596,782.1905 238.53474,779.89678 C 235.75114,777.60306 233.04619,776.16264 229.78117,773.95211 C 226.52093,771.74396 225.65582,770.401 222.18823,770.30354 C 218.72303,770.20847 215.64391,771.46823 217.08338,775.20237 C 218.52999,778.93651 222.39081,782.7776 224.97899,784.6007 C 227.56955,786.42617 231.80453,790.44791 233.0581,791.50564 C 234.30929,792.56099 241.03713,797.36236 241.03713,797.36236 z"
         id="path3558"
         style="fill:none;stroke:#f49e00;stroke-width:0.35700998;stroke-linecap:butt;stroke-linejoin:miter;stroke-miterlimit:3.86400008;stroke-dasharray:none;stroke-opacity:1" /><path
         d="M 264.86456,805.72673 L 265.18392,805.54609 C 265.46275,804.98038 265.71061,804.30534 265.93463,803.50432 C 266.55665,801.29141 265.84883,799.76305 264.69536,798.63639 C 264.13053,798.08495 263.46085,797.63333 262.80784,797.23876 C 262.16199,796.85133 261.51376,796.50905 260.96085,796.17391 C 258.74922,794.83095 251.56858,789.95827 249.47849,788.06387 C 247.35743,786.14094 241.56143,781.90052 238.77783,779.60204 C 237.3765,778.44686 235.99185,777.50323 234.54762,776.57385 C 233.1153,775.65161 231.62579,774.74125 229.99805,773.63836 C 228.35601,772.52834 227.32169,771.637 226.25639,771.00949 C 225.14104,770.35108 223.99233,769.97315 222.19777,769.92324 C 220.97041,769.88996 219.70969,770.03258 218.67537,770.42477 L 218.58719,770.67197 C 219.60482,770.24888 220.89176,770.08962 222.193,770.12528 C 223.95658,770.17519 225.06716,770.54361 226.15153,771.183 C 227.21445,771.80813 228.24876,772.69948 229.88365,773.80712 C 231.51378,774.91001 233.00329,775.82037 234.4356,776.74261 C 235.87507,777.66961 237.25257,778.60611 238.64914,779.75892 C 241.43036,782.05502 247.22397,786.29306 249.34027,788.21361 C 251.44703,790.12228 258.64436,795.00209 260.85837,796.34504 C 261.41128,796.68257 262.05951,797.02246 262.70298,797.41228 C 263.3536,797.80209 264.00422,798.24658 264.55475,798.78138 C 265.66294,799.86288 266.33739,801.31755 265.73921,803.44965 C 265.48182,804.37189 265.19821,805.11824 264.86456,805.72673"
         id="path3560"
         style="fill:#f49e00;fill-opacity:1;fill-rule:nonzero;stroke:none" /><path
         d="M 125.58439,711.42019 C 125.44855,710.94481 125.16494,710.54311 124.72167,710.43377 C 121.95236,712.42325 109.32844,722.27794 110.39851,744.16459 C 111.01338,756.72184 115.25313,763.41524 118.83034,767.35141 C 122.38134,771.25907 127.54578,776.71884 135.35321,780.27471 C 143.13204,783.81632 153.80887,787.49103 160.57722,787.85945 C 167.2979,788.2255 175.71543,788.35147 178.32029,787.73347 C 180.48188,787.22006 182.25737,786.96573 182.7507,786.89918 C 183.61343,789.15487 195.39607,819.81947 200.64392,829.52442 C 206.0729,839.56214 212.83409,851.65114 214.22113,852.65895 C 215.22923,853.38866 217.56479,854.61753 219.53809,853.94011 C 219.6644,853.80938 219.78356,853.66439 219.89796,853.50513 C 220.39129,852.83247 220.87031,852.25488 221.27308,851.6963 C 221.68299,851.12346 222.03571,850.53874 222.22398,849.8732 C 222.60291,848.51123 222.25973,846.94484 220.77022,844.5917 C 217.83886,839.96146 212.40035,829.36279 209.83839,823.81745 C 207.26927,818.26734 194.15203,793.26218 191.55432,789.86557 C 190.04574,787.8951 188.98759,786.81123 188.35842,786.24315 C 188.78502,786.16471 189.35461,786.05062 190.03621,785.88899 C 189.78597,785.6513 189.59054,785.47778 189.43802,785.3518 C 190.40799,785.19255 192.93897,784.70766 196.02762,783.55961 C 197.95088,782.84653 200.09101,781.87913 202.20731,780.57182 C 203.97805,779.33583 205.69397,777.8455 207.21208,776.05568 C 214.56193,767.38231 221.28976,757.24477 222.9032,749.26783 C 224.46898,741.51671 224.95039,736.93164 222.6482,735.04199 C 221.23256,733.8773 217.36698,732.1469 214.19253,732.76728 C 213.46803,733.1666 212.83171,733.76083 212.33838,734.60226 C 211.03238,736.83656 210.75593,739.05422 210.61532,741.1673 C 210.54859,742.2179 210.51284,743.24948 210.40559,744.25492 C 210.29596,745.25322 210.11484,746.21587 209.75497,747.14287 C 208.28453,750.93167 202.91513,762.11031 196.9118,765.98231 C 193.7302,768.03359 190.06242,769.87808 186.13487,771.2044 C 182.15966,772.71374 177.8794,773.70967 173.54909,773.84277 C 169.54766,773.964 165.11964,774.45126 160.05291,774.19218 C 155.01001,773.93547 149.33318,772.93717 142.80078,770.08962 C 140.49859,769.08656 137.7412,767.94802 135.11966,766.46482 C 132.50526,764.99114 130.05531,763.19181 128.3251,760.86956 C 124.79555,756.13712 119.90279,748.3551 120.87038,737.07663 C 121.35894,731.37203 121.61871,727.07219 121.99288,723.73975 C 122.36704,720.40969 122.85084,718.10646 123.76599,716.34041 C 124.7169,714.5078 125.17686,713.74006 125.3985,713.42631 C 125.62491,713.18624 125.69879,713.11018 125.70594,713.02461 C 125.70594,713.02461 125.72738,712.80356 125.72262,712.49218 C 125.71785,712.19506 125.69164,711.78861 125.58439,711.42019"
         id="path3562"
         style="fill:#f49e00;fill-opacity:1;fill-rule:nonzero;stroke:none" /><path
         d="M 102.67449,715.67962 L 102.96763,715.5584 C 103.31081,714.80967 103.34894,713.91358 102.94618,712.92478 C 101.95714,710.49557 98.015297,707.26772 94.326071,705.53494 C 90.689277,703.82832 77.007208,697.68399 73.856591,697.09927 C 70.77747,696.52881 66.246967,695.67312 64.025806,695.02897 C 61.795112,694.38245 57.259843,692.44764 56.397117,692.23134 C 56.301788,692.20995 56.189777,692.16241 56.053933,692.10774 L 55.529625,691.87956 C 55.124477,691.70604 54.64545,691.51114 54.128291,691.37328 C 53.437157,691.1855 52.643545,691.08805 51.852316,691.29246 L 51.652125,691.56343 C 52.476719,691.27582 53.327529,691.36614 54.07586,691.56818 C 54.581103,691.70604 55.050598,691.8962 55.448595,692.06733 L 55.975287,692.29314 C 56.120664,692.35494 56.246974,692.40248 56.34707,692.42625 C 57.209795,692.64017 61.740298,694.57974 63.970992,695.22388 C 66.194537,695.86802 70.734572,696.72609 73.818459,697.29655 C 76.938095,697.87652 90.589182,704.00421 94.240275,705.71797 C 97.915201,707.44361 101.79747,710.64294 102.75791,713.00084 C 103.17259,714.01816 103.09156,714.93565 102.67449,715.67962"
         id="path3564"
         style="fill:#f49e00;fill-opacity:1;fill-rule:nonzero;stroke:none" /><path
         d="M 11.030132,729.96965 C 10.91812,730.09325 10.813259,730.22635 10.71078,730.36897 C 10.975318,730.20972 11.256538,730.07899 11.552057,729.96965 C 12.429082,729.64876 13.422885,729.53467 14.483418,729.49664 C 15.541568,729.46099 16.683131,729.50377 17.869975,729.50377 C 22.61735,729.50377 25.443849,730.40462 39.540599,730.92041 C 67.093011,731.26269 84.538185,735.48885 92.140658,737.06237 C 100.85133,738.86169 102.77697,742.56731 102.04532,744.80874 L 102.28841,744.71128 C 102.95095,742.27732 100.70119,738.62638 92.181173,736.86271 C 84.573933,735.28919 67.119226,731.06065 39.547748,730.71838 C 25.443849,730.20258 22.61735,729.30173 17.869975,729.30173 C 16.680748,729.30173 15.536802,729.25895 14.476269,729.2946 C 13.408586,729.33263 12.388567,729.44673 11.48056,729.77949 C 11.328034,729.83654 11.177891,729.89834 11.030132,729.96965"
         id="path3566"
         style="fill:#f49e00;fill-opacity:1;fill-rule:nonzero;stroke:none" /><path
         d="M 119.30699,784.57693 L 119.56199,784.31547 C 119.65256,783.57625 119.33082,782.7776 117.72453,782.74433 C 115.1721,782.69203 112.1192,783.65231 108.47049,785.10223 C 104.81939,786.55452 100.50815,788.52974 95.388988,790.57151 C 91.728361,792.03094 90.470021,792.58476 89.261728,793.07203 C 88.055818,793.56167 86.899956,793.98476 83.453819,795.18748 C 76.525797,797.60243 68.980521,800.99429 65.322278,803.22146 C 61.678334,805.44388 59.402358,806.82249 57.834199,807.40959 C 57.031054,807.70908 56.013419,808.03472 55.069663,808.3461 C 54.130674,808.65747 53.227434,808.96885 52.695976,809.23268 C 52.193116,809.48464 49.890925,810.45204 47.664997,811.47174 C 46.516285,811.99466 45.286543,812.57225 44.35947,813.09042 L 44.216477,813.40417 C 45.129251,812.87887 46.454321,812.24662 47.74841,811.65476 C 49.979104,810.63507 52.283679,809.66528 52.786538,809.41571 C 53.303697,809.15662 54.190255,808.85 55.13401,808.53863 C 56.080149,808.22487 57.100167,807.89923 57.905696,807.59974 C 59.495304,807.00314 61.795112,805.61026 65.429523,803.39498 C 69.068701,801.17494 76.602061,797.79021 83.52055,795.37764 C 86.973836,794.17492 88.129698,793.74945 89.337991,793.25981 C 90.546284,792.77016 91.804624,792.21872 95.462868,790.75929 C 100.58203,788.71752 104.89565,786.7423 108.54675,785.29238 C 112.19546,783.84008 115.21262,782.89645 117.72215,782.94636 C 119.36657,782.98202 119.50956,783.85197 119.30699,784.57693"
         id="path3568"
         style="fill:#f49e00;fill-opacity:1;fill-rule:nonzero;stroke:none" /><path
         d="M 151.5043,790.84486 C 151.49953,791.04214 151.65682,791.10157 151.8165,791.16812 C 152.12155,791.29647 152.4838,791.47949 152.98189,791.61973 C 154.13537,791.95012 154.43566,793.40717 154.49524,795.21838 C 154.55482,797.06763 154.36178,799.46831 154.36178,801.95932 C 154.36178,806.99363 150.20068,816.24934 148.85416,818.83543 C 147.50764,821.42864 144.63109,828.04123 143.47523,830.34684 C 142.31222,832.66433 137.87704,839.38387 135.94902,841.97946 C 134.99811,843.26062 134.28553,844.63686 133.64206,846.15095 C 132.99382,847.67218 132.41947,849.32176 131.7474,851.14248 C 131.54959,851.67728 131.28267,852.07898 130.97285,852.3761 C 131.09201,852.35708 131.20879,852.33094 131.32557,852.29766 C 131.56627,852.01243 131.77362,851.65589 131.93806,851.21379 C 132.61013,849.39544 133.1821,847.74586 133.82795,846.23177 C 134.46665,844.7248 135.17209,843.36521 136.11108,842.10069 C 138.04149,839.50272 142.48619,832.77129 143.65635,830.43478 C 144.81221,828.13155 147.68638,821.52134 149.03528,818.9305 C 150.37703,816.3468 154.56674,807.05068 154.56674,801.95932 C 154.56674,799.46356 154.75739,797.06287 154.69781,795.21125 C 154.63823,793.44045 154.35701,791.80276 153.03671,791.4272 C 152.54815,791.28696 152.19543,791.10632 151.89276,790.98034 C 151.77122,790.92805 151.64252,790.87813 151.5043,790.84486"
         id="path3570"
         style="fill:#f49e00;fill-opacity:1;fill-rule:nonzero;stroke:none" /><path
         d="M 125.87514,620.26544 L 130.96332,620.26544 C 131.47095,620.26544 131.59011,620.35101 131.59011,620.87631 L 131.59011,622.80161 C 131.59011,623.32691 131.50193,623.41485 130.96332,623.41485 L 125.87514,623.41485 L 125.87514,628.22811 L 131.68067,628.22811 C 131.91899,628.22811 132.25026,628.25663 132.36942,628.69398 L 132.93663,630.65019 C 132.99859,630.8546 133.02719,630.91165 133.02719,631.05902 C 133.02719,631.32048 132.87705,631.3799 132.27886,631.3799 L 122.46237,631.3799 C 121.95475,631.3799 121.83559,631.29195 121.83559,630.76666 L 121.83559,612.00803 C 121.83559,611.48273 121.95475,611.39479 122.46237,611.39479 L 125.27696,611.39479 C 125.78458,611.39479 125.87514,611.48273 125.87514,612.00803 L 125.87514,620.26544 z"
         id="path3572"
         style="fill:#000000;fill-opacity:1;fill-rule:nonzero;stroke:none" /><path
         d="M 139.54768,619.64982 L 140.98476,619.64982 L 145.02432,611.80362 C 145.32461,611.24742 145.56293,610.89801 145.71307,610.89801 C 145.83223,610.89801 146.01336,610.92891 146.13252,610.95743 L 148.64682,611.65625 C 148.9471,611.74419 149.245,611.83214 149.245,612.00803 C 149.245,612.18392 149.09486,612.41686 149.0043,612.56185 L 144.54529,620.35101 C 145.65349,620.90721 147.95807,621.98633 147.95807,625.74898 C 147.95807,631.23253 143.28934,631.3799 140.98476,631.3799 L 136.13729,631.3799 C 135.62728,631.3799 135.50812,631.29195 135.50812,630.76666 L 135.50812,612.00803 C 135.50812,611.48273 135.62728,611.39479 136.13729,611.39479 L 138.92089,611.39479 C 139.42852,611.39479 139.54768,611.48273 139.54768,612.00803 L 139.54768,619.64982 z M 139.54768,622.71366 L 139.54768,628.31605 L 140.65588,628.31605 C 142.21212,628.31605 143.91851,628.22811 143.91851,625.68956 C 143.91851,623.00602 142.2717,622.71366 140.32699,622.71366 L 139.54768,622.71366 z"
         id="path3574"
         style="fill:#000000;fill-opacity:1;fill-rule:evenodd;stroke:none" /><path
         d="M 163.12726,613.93333 C 163.12726,614.45863 163.03908,614.54658 162.49809,614.54658 L 156.092,614.54658 L 156.092,620.26544 L 161.18017,620.26544 C 161.69257,620.26544 161.80934,620.35101 161.80934,620.87631 L 161.80934,622.80161 C 161.80934,623.32691 161.71878,623.41485 161.18017,623.41485 L 156.092,623.41485 L 156.092,628.22811 L 161.89991,628.22811 C 162.13823,628.22811 162.46711,628.25663 162.58866,628.69398 L 163.15586,630.65019 C 163.21783,630.8546 163.24643,630.91165 163.24643,631.05902 C 163.24643,631.32048 163.09628,631.3799 162.49809,631.3799 L 152.68161,631.3799 C 152.1716,631.3799 152.05482,631.29195 152.05482,630.76666 L 152.05482,612.00803 C 152.05482,611.48273 152.1716,611.39479 152.68161,611.39479 L 162.52669,611.39479 C 163.03908,611.39479 163.12726,611.48273 163.12726,612.00803 L 163.12726,613.93333 z"
         id="path3576"
         style="fill:#000000;fill-opacity:1;fill-rule:nonzero;stroke:none" /><path
         d="M 173.98998,613.58393 C 173.98998,614.10922 173.86844,614.19717 173.36081,614.19717 L 171.71401,614.19717 L 171.71401,628.57752 L 173.36081,628.57752 C 173.86844,628.57752 173.98998,628.66546 173.98998,629.19076 L 173.98998,630.76666 C 173.98998,631.29195 173.86844,631.3799 173.36081,631.3799 L 166.02764,631.3799 C 165.52002,631.3799 165.39847,631.29195 165.39847,630.76666 L 165.39847,629.19076 C 165.39847,628.66546 165.52002,628.57752 166.02764,628.57752 L 167.67445,628.57752 L 167.67445,614.19717 L 166.02764,614.19717 C 165.52002,614.19717 165.39847,614.10922 165.39847,613.58393 L 165.39847,612.00803 C 165.39847,611.48273 165.52002,611.39479 166.02764,611.39479 L 173.36081,611.39479 C 173.86844,611.39479 173.98998,611.48273 173.98998,612.00803 L 173.98998,613.58393 z"
         id="path3578"
         style="fill:#000000;fill-opacity:1;fill-rule:nonzero;stroke:none" /><path
         d="M 188.58721,613.93333 C 188.58721,614.45863 188.49665,614.54658 187.96042,614.54658 L 181.55432,614.54658 L 181.55432,620.26544 L 186.64012,620.26544 C 187.15251,620.26544 187.26929,620.35101 187.26929,620.87631 L 187.26929,622.80161 C 187.26929,623.32691 187.18111,623.41485 186.64012,623.41485 L 181.55432,623.41485 L 181.55432,628.22811 L 187.35985,628.22811 C 187.59817,628.22811 187.92944,628.25663 188.0486,628.69398 L 188.61581,630.65019 C 188.67777,630.8546 188.70637,630.91165 188.70637,631.05902 C 188.70637,631.32048 188.55861,631.3799 187.96042,631.3799 L 178.14394,631.3799 C 177.63393,631.3799 177.51477,631.29195 177.51477,630.76666 L 177.51477,612.00803 C 177.51477,611.48273 177.63393,611.39479 178.14394,611.39479 L 187.98664,611.39479 C 188.49665,611.39479 188.58721,611.48273 188.58721,612.00803 L 188.58721,613.93333 z"
         id="path3580"
         style="fill:#000000;fill-opacity:1;fill-rule:nonzero;stroke:none" /><path
         d="M 215.99901,621.60602 C 215.69873,620.0016 215.42704,617.57952 215.31026,616.09157 L 215.2483,616.09157 C 215.06955,617.75541 214.76927,620.11807 214.4094,621.60602 L 212.28595,630.50282 C 212.13343,631.11606 212.10721,631.3799 211.6258,631.3799 L 209.59291,631.3799 C 208.87318,631.3799 208.84458,631.11606 208.69444,630.50282 L 206.56861,621.60602 C 206.21112,620.11807 205.79168,617.75541 205.61294,616.09157 L 205.55097,616.09157 C 205.43419,617.57952 205.19349,620.0016 204.89559,621.60602 L 203.09864,631.05902 C 202.97709,631.64136 202.79835,631.64136 202.65059,631.64136 C 202.46947,631.64136 202.32171,631.61284 202.20016,631.58432 L 199.86699,631.17549 C 199.62629,631.11606 199.2974,631.05902 199.2974,630.88312 C 199.2974,630.70961 199.38558,630.44577 199.41656,630.24136 L 203.30598,611.65625 C 203.39654,611.24742 203.51809,611.13095 203.96613,611.13095 L 206.54001,611.13095 C 207.07623,611.13095 207.07623,611.21889 207.19778,611.65625 L 209.6239,621.46103 C 209.95278,622.80161 210.2197,624.5534 210.37223,626.50722 L 210.42942,626.50722 C 210.57718,624.58192 210.84887,622.77071 211.11818,621.46103 L 213.09387,611.65625 C 213.18443,611.21889 213.21303,611.13095 213.75402,611.13095 L 216.3279,611.13095 C 216.77594,611.13095 216.86412,611.24742 216.98328,611.65625 L 221.35411,630.21283 C 221.41369,630.41725 221.50187,630.70961 221.50187,630.8546 C 221.50187,631.03049 221.17298,631.08754 220.93466,631.14696 L 218.68967,631.58432 C 218.57051,631.61284 218.42036,631.64136 218.24162,631.64136 C 218.09148,631.64136 217.91035,631.64136 217.79119,631.05902 L 215.99901,621.60602 z"
         id="path3582"
         style="fill:#000000;fill-opacity:1;fill-rule:nonzero;stroke:none" /><path
         d="M 228.45134,616.73334 L 233.59909,616.73334 L 234.91463,612.00803 C 235.06716,611.48273 235.12436,611.39479 235.42464,611.39479 L 238.77545,611.39479 C 239.07573,611.39479 239.37364,611.45421 239.37364,611.62772 C 239.37364,611.74419 239.28546,611.97951 239.25448,612.0936 L 233.38937,630.91165 C 233.27021,631.26343 233.21063,631.3799 232.7602,631.3799 L 229.64771,631.3799 C 229.13771,631.3799 229.11149,631.32048 228.98995,630.94017 L 223.09386,612.15302 C 223.06288,612.03655 222.9747,611.80362 222.9747,611.65625 C 223.0033,611.45421 223.18442,611.39479 223.57289,611.39479 L 226.59481,611.39479 C 227.04524,611.39479 227.10482,611.48273 227.22398,612.00803 L 228.45134,616.73334 z M 232.85076,619.35983 L 228.90177,619.35983 L 230.2173,624.3775 C 230.51521,625.54457 230.78451,627.23456 230.90606,628.46342 L 230.96564,628.46342 C 231.1134,627.23456 231.3541,625.51367 231.62102,624.3775 L 232.85076,619.35983 z"
         id="path3584"
         style="fill:#000000;fill-opacity:1;fill-rule:evenodd;stroke:none" /><path
         d="M 256.35885,630.76666 C 256.35885,631.29195 256.24207,631.3799 255.72968,631.3799 L 252.94608,631.3799 C 252.44084,631.3799 252.31929,631.29195 252.31929,630.76666 L 252.31929,623.29838 L 246.63293,623.29838 L 246.63293,630.76666 C 246.63293,631.29195 246.51377,631.3799 246.00376,631.3799 L 243.22254,631.3799 C 242.71253,631.3799 242.59099,631.29195 242.59099,630.76666 L 242.59099,612.00803 C 242.59099,611.48273 242.71253,611.39479 243.22254,611.39479 L 246.00376,611.39479 C 246.51377,611.39479 246.63293,611.48273 246.63293,612.00803 L 246.63293,620.14659 L 252.31929,620.14659 L 252.31929,612.00803 C 252.31929,611.48273 252.44084,611.39479 252.94608,611.39479 L 255.72968,611.39479 C 256.24207,611.39479 256.35885,611.48273 256.35885,612.00803 L 256.35885,630.76666 z"
         id="path3586"
         style="fill:#000000;fill-opacity:1;fill-rule:nonzero;stroke:none" /><path
         d="M 273.20584,614.13775 C 273.23443,614.25422 273.26542,614.43011 273.26542,614.51568 C 273.26542,614.74861 273.14626,614.89598 272.72681,614.89598 L 265.5128,614.89598 L 265.5128,630.76666 C 265.5128,631.29195 265.39364,631.3799 264.88601,631.3799 L 262.10003,631.3799 C 261.59717,631.3799 261.47562,631.29195 261.47562,630.76666 L 261.47562,612.00803 C 261.47562,611.48273 261.59717,611.39479 262.10003,611.39479 L 271.98086,611.39479 C 272.42652,611.39479 272.51708,611.45421 272.63863,611.92008 L 273.20584,614.13775 z"
         id="path3588"
         style="fill:#000000;fill-opacity:1;fill-rule:nonzero;stroke:none" /><path
         d="M 287.21202,613.93333 C 287.21202,614.45863 287.12384,614.54658 286.58524,614.54658 L 280.17914,614.54658 L 280.17914,620.26544 L 285.2697,620.26544 C 285.77732,620.26544 285.89648,620.35101 285.89648,620.87631 L 285.89648,622.80161 C 285.89648,623.32691 285.80592,623.41485 285.2697,623.41485 L 280.17914,623.41485 L 280.17914,628.22811 L 285.98705,628.22811 C 286.22537,628.22811 286.55425,628.25663 286.67341,628.69398 L 287.24062,630.65019 C 287.30258,630.8546 287.33357,630.91165 287.33357,631.05902 C 287.33357,631.32048 287.18342,631.3799 286.58524,631.3799 L 276.76637,631.3799 C 276.25874,631.3799 276.13958,631.29195 276.13958,630.76666 L 276.13958,612.00803 C 276.13958,611.48273 276.25874,611.39479 276.76637,611.39479 L 286.61622,611.39479 C 287.12384,611.39479 287.21202,611.48273 287.21202,612.00803 L 287.21202,613.93333 z"
         id="path3590"
         style="fill:#000000;fill-opacity:1;fill-rule:nonzero;stroke:none" /><path
         d="M 294.66435,619.64982 L 296.09905,619.64982 L 300.14099,611.80362 C 300.4389,611.24742 300.6796,610.89801 300.82736,610.89801 C 300.94891,610.89801 301.12765,610.92891 301.24681,610.95743 L 303.76111,611.65625 C 304.06139,611.74419 304.35929,611.83214 304.35929,612.00803 C 304.35929,612.18392 304.20915,612.41686 304.11859,612.56185 L 299.65958,620.35101 C 300.77016,620.90721 303.07235,621.98633 303.07235,625.74898 C 303.07235,631.23253 298.40601,631.3799 296.09905,631.3799 L 291.25158,631.3799 C 290.74396,631.3799 290.62241,631.29195 290.62241,630.76666 L 290.62241,612.00803 C 290.62241,611.48273 290.74396,611.39479 291.25158,611.39479 L 294.03518,611.39479 C 294.54281,611.39479 294.66435,611.48273 294.66435,612.00803 L 294.66435,619.64982 z M 294.66435,622.71366 L 294.66435,628.31605 L 295.77017,628.31605 C 297.32641,628.31605 299.03041,628.22811 299.03041,625.68956 C 299.03041,623.00602 297.38361,622.71366 295.44128,622.71366 L 294.66435,622.71366 z"
         id="path3592"
         style="fill:#000000;fill-opacity:1;fill-rule:evenodd;stroke:none" /><path
         d="M 235.96087,635.98874 C 235.96087,634.87159 235.05286,633.96599 233.93275,633.96599 C 232.81263,633.96599 231.90462,634.87159 231.90462,635.98874 C 231.90462,637.10589 232.81263,638.0115 233.93275,638.0115 C 235.05286,638.0115 235.96087,637.10589 235.96087,635.98874"
         id="path3594"
         style="fill:#000000;fill-opacity:1;fill-rule:evenodd;stroke:none" /><path
         d="M 230.44371,635.98874 C 230.44371,634.87159 229.5357,633.96599 228.41559,633.96599 C 227.29548,633.96599 226.38747,634.87159 226.38747,635.98874 C 226.38747,637.10589 227.29548,638.0115 228.41559,638.0115 C 229.5357,638.0115 230.44371,637.10589 230.44371,635.98874"
         id="path3596"
         style="fill:#000000;fill-opacity:1;fill-rule:evenodd;stroke:none" /><path
         d="M 141.04673,715.39202 L 118.91376,650.66858 L 144.57151,650.66858 L 153.8756,678.06492 L 185.30313,678.06492 L 188.82553,690.76478 L 157.84128,690.76478 L 162.0715,702.57806 L 194.60484,702.57806 L 198.35126,715.39202 L 141.04673,715.39202 z"
         id="path3598"
         style="fill:#000000;fill-opacity:1;fill-rule:nonzero;stroke:none" /><path
         d="M 313.58951,715.39202 L 288.80163,715.39202 L 267.6863,672.45777 L 270.68677,715.39202 L 246.45657,715.39202 L 224.78356,672.2391 L 228.22732,715.39202 L 204.88844,715.39202 L 205.66775,650.66858 L 231.84504,650.66858 L 251.23493,689.32437 L 247.79117,650.66858 L 274.01613,650.66858 L 313.58951,715.39202 z"
         id="path3600"
         style="fill:#000000;fill-opacity:1;fill-rule:nonzero;stroke:none" /><path
         d="M 139.01622,717.00832 L 116.88087,652.28726 L 142.54101,652.28726 L 151.8451,679.6836 L 183.27739,679.6836 L 186.79741,692.38346 L 155.81078,692.38346 L 160.04576,704.19674 L 192.5791,704.19674 L 196.32553,717.00832 L 139.01622,717.00832 z"
         id="path3602"
         style="fill:#00827b;fill-opacity:1;fill-rule:nonzero;stroke:none" /><path
         d="M 311.56139,717.00832 L 286.77589,717.00832 L 265.66056,674.07645 L 268.65865,717.00832 L 244.42845,717.00832 L 222.75544,673.8554 L 226.20158,717.00832 L 202.8627,717.00832 L 203.63963,652.28726 L 229.81692,652.28726 L 249.20919,690.94068 L 245.76305,652.28726 L 271.99039,652.28726 L 311.56139,717.00832 z"
         id="path3604"
         style="fill:#00827b;fill-opacity:1;fill-rule:nonzero;stroke:none" /></g></g></svg>