<svg width="404.001" height="75.201" viewBox="0 0 404.001 75.201" xmlns="http://www.w3.org/2000/svg"><g id="svgGroup" stroke-linecap="round" fill-rule="evenodd" font-size="9pt" stroke="#858585" stroke-width="0.25mm" fill="#858585" style="stroke:#858585;stroke-width:0.25mm;fill:#858585"><path d="M 364.7 69.8 L 368.5 62.3 A 18.557 18.557 0 0 0 371.644 64.426 Q 373.198 65.27 375.05 65.95 A 24.073 24.073 0 0 0 382.661 67.387 A 27.464 27.464 0 0 0 383.5 67.4 Q 388.892 67.4 391.735 65.685 A 7.738 7.738 0 0 0 391.95 65.55 Q 394.8 63.7 394.8 60.8 A 7.123 7.123 0 0 0 394.486 58.653 A 6.212 6.212 0 0 0 393.75 57.1 A 6.384 6.384 0 0 0 392.821 56.006 Q 391.807 55.034 390.134 54.081 A 22.3 22.3 0 0 0 389.9 53.95 A 28.462 28.462 0 0 0 387.906 52.957 Q 385.79 51.995 382.801 50.946 A 103.602 103.602 0 0 0 381.8 50.6 A 46.616 46.616 0 0 1 377.402 48.857 Q 375.288 47.883 373.612 46.795 A 19.335 19.335 0 0 1 370.85 44.65 A 11.324 11.324 0 0 1 367.556 38.654 A 16.794 16.794 0 0 1 367.2 35.1 Q 367.2 29.1 372.45 24.95 Q 376.854 21.469 384.108 20.908 A 37.527 37.527 0 0 1 387 20.8 A 40.794 40.794 0 0 1 391.446 21.031 Q 393.754 21.284 395.77 21.815 A 25.234 25.234 0 0 1 395.9 21.85 Q 399.8 22.9 402.9 24.5 L 400.4 31.9 Q 397.7 30.3 394.25 29.3 A 25.024 25.024 0 0 0 389.767 28.453 A 31.837 31.837 0 0 0 386.6 28.3 A 20.632 20.632 0 0 0 383.663 28.495 Q 380.577 28.94 378.7 30.4 A 9.322 9.322 0 0 0 377.342 31.673 Q 376.64 32.492 376.305 33.365 A 4.529 4.529 0 0 0 376 35 A 4.921 4.921 0 0 0 377.495 38.552 A 7.082 7.082 0 0 0 378.1 39.1 Q 380.165 40.772 386.098 42.734 A 84.459 84.459 0 0 0 386.3 42.8 A 67.753 67.753 0 0 1 391.362 44.698 Q 397.289 47.217 400.1 50.1 Q 404 54.1 404 60.1 Q 404 66.848 398.749 70.855 A 16.618 16.618 0 0 1 398.35 71.15 Q 393.61 74.547 386.162 75.095 A 40.423 40.423 0 0 1 383.2 75.2 Q 377.3 75.2 372.55 73.7 A 30.883 30.883 0 0 1 368.71 72.215 Q 366.729 71.284 365.148 70.136 A 18.229 18.229 0 0 1 364.7 69.8 Z M 239 51.7 L 202.6 51.7 A 24.088 24.088 0 0 0 203.739 56.725 Q 205.075 60.538 207.7 63.1 Q 211.9 67.2 218.8 67.2 Q 223.3 67.2 226.9 66.25 Q 230.5 65.3 233.8 63.8 L 235.9 71.5 A 40.77 40.77 0 0 1 231.565 73.126 A 51.863 51.863 0 0 1 227.8 74.15 A 38.914 38.914 0 0 1 222.708 74.969 A 52.025 52.025 0 0 1 217.7 75.2 A 28.318 28.318 0 0 1 209.954 74.195 A 21.108 21.108 0 0 1 199.95 68.05 A 23.521 23.521 0 0 1 194.745 58.51 Q 193.4 53.845 193.4 48 A 35.359 35.359 0 0 1 194.233 40.178 A 28.84 28.84 0 0 1 196.35 34.05 A 24.642 24.642 0 0 1 201.366 26.968 A 22.887 22.887 0 0 1 204.6 24.35 A 21.048 21.048 0 0 1 214.859 20.878 A 26.205 26.205 0 0 1 216.9 20.8 Q 224.4 20.8 229.35 24.05 Q 234.3 27.3 236.8 32.8 A 28.185 28.185 0 0 1 239.226 42.664 A 33.434 33.434 0 0 1 239.3 44.9 A 75.204 75.204 0 0 1 239.009 51.597 A 69.426 69.426 0 0 1 239 51.7 Z M 161.2 56.1 L 161.2 31.7 L 152.2 31.7 L 152.2 23.9 L 161.4 23.9 L 163.3 7.5 L 170.2 7.5 L 170.2 23.9 L 184.6 23.9 L 184.6 31.7 L 170.2 31.7 L 170.2 56.8 A 21.559 21.559 0 0 0 170.368 59.596 Q 170.841 63.202 172.65 64.9 Q 175.1 67.2 178.5 67.2 Q 181 67.2 183.25 66.4 Q 185.5 65.6 187.4 64.5 L 189.9 71.7 A 18.546 18.546 0 0 1 188.282 72.556 Q 187.48 72.935 186.534 73.308 A 43.365 43.365 0 0 1 184.5 74.05 Q 181.1 75.2 177.4 75.2 Q 169.9 75.2 165.55 70.25 A 16.116 16.116 0 0 1 162.322 64.348 Q 161.559 61.917 161.315 58.98 A 34.777 34.777 0 0 1 161.2 56.1 Z M 9.5 74 L 0 74 L 0 4.2 Q 4.1 3.7 9.05 3.45 A 200.806 200.806 0 0 1 17.98 3.204 A 221.966 221.966 0 0 1 19.3 3.2 Q 26.87 3.2 32.472 5.282 A 26.011 26.011 0 0 1 34.1 5.95 A 24.606 24.606 0 0 1 39.182 8.979 A 19.374 19.374 0 0 1 43.4 13.5 Q 46.6 18.3 46.6 24.5 A 25.258 25.258 0 0 1 45.892 30.622 A 19.268 19.268 0 0 1 42.9 37.2 A 22.312 22.312 0 0 1 35.349 43.83 A 28.065 28.065 0 0 1 32.6 45.15 A 34.774 34.774 0 0 1 24.511 47.374 A 47.194 47.194 0 0 1 17.3 47.9 Q 13.1 47.9 9.5 47.6 L 9.5 74 Z M 91.2 26.2 L 91.2 22 L 99.4 22 L 99.4 61.4 A 12.15 12.15 0 0 0 99.502 63.036 Q 99.834 65.47 101.25 66.35 Q 103.1 67.5 105.3 67.5 L 103.4 74.5 A 17.722 17.722 0 0 1 99.135 74.028 Q 93.498 72.628 91.903 67.08 A 13.59 13.59 0 0 1 91.8 66.7 A 21.307 21.307 0 0 1 88.69 70.126 A 28.498 28.498 0 0 1 85.55 72.55 Q 81.6 75.2 75.5 75.2 Q 69 75.2 63.7 71.9 A 22.947 22.947 0 0 1 56.287 64.373 A 27.923 27.923 0 0 1 55.25 62.55 A 27.228 27.228 0 0 1 52.62 54.608 A 36.644 36.644 0 0 1 52.1 48.3 A 33.142 33.142 0 0 1 53.097 40.031 A 27.968 27.968 0 0 1 55.25 34.3 Q 58.4 28.1 63.95 24.45 A 22.297 22.297 0 0 1 75.145 20.844 A 27.388 27.388 0 0 1 76.7 20.8 A 22.584 22.584 0 0 1 81.494 21.29 A 18.703 18.703 0 0 1 84.85 22.35 A 26.002 26.002 0 0 1 89.137 24.644 A 22.103 22.103 0 0 1 91.2 26.2 Z M 275.8 57.7 L 275.8 0 L 284.8 0 L 284.8 56.8 A 20.644 20.644 0 0 0 284.988 59.688 Q 285.45 62.952 287.05 64.8 A 7.363 7.363 0 0 0 291.634 67.276 A 10.724 10.724 0 0 0 293.3 67.4 Q 295.2 67.4 297.05 66.95 A 22.192 22.192 0 0 0 298.513 66.544 Q 299.448 66.247 300.2 65.9 L 302.4 73.2 Q 301.001 73.822 299.088 74.323 A 34.978 34.978 0 0 1 297.95 74.6 A 23.816 23.816 0 0 1 294.795 75.085 A 30.514 30.514 0 0 1 292.1 75.2 A 20.862 20.862 0 0 1 287.21 74.646 A 17.544 17.544 0 0 1 283.8 73.45 A 12.683 12.683 0 0 1 278.475 68.685 A 15.856 15.856 0 0 1 277.95 67.8 Q 276.216 64.654 275.88 60.012 A 32.105 32.105 0 0 1 275.8 57.7 Z M 126.3 74 L 117.3 74 L 117.3 22 L 126 22 L 126 33.3 Q 127.3 30 129.5 27.15 Q 131.7 24.3 135 22.55 A 14.817 14.817 0 0 1 139.68 21.026 A 19.459 19.459 0 0 1 142.7 20.8 Q 144.2 20.8 145.7 20.95 A 18.972 18.972 0 0 1 146.755 21.084 Q 147.255 21.162 147.682 21.262 A 8.817 8.817 0 0 1 148.2 21.4 L 145.5 30.7 A 9.763 9.763 0 0 0 143.355 30.088 Q 142.259 29.9 141 29.9 A 12.958 12.958 0 0 0 134.37 31.746 A 15.609 15.609 0 0 0 133.95 32 Q 130.622 34.086 128.478 38.442 A 22.927 22.927 0 0 0 128.45 38.5 Q 126.687 42.107 126.37 47.328 A 39.09 39.09 0 0 0 126.3 49.7 L 126.3 74 Z M 318 71.75 A 24.559 24.559 0 0 0 322.598 73.84 Q 326.653 75.2 331.3 75.2 Q 338.7 75.2 344.55 71.8 Q 350.4 68.4 353.8 62.25 A 26.255 26.255 0 0 0 356.453 55.109 A 34.184 34.184 0 0 0 357.2 47.8 A 34.542 34.542 0 0 0 356.715 41.891 A 25.795 25.795 0 0 0 353.75 33.45 Q 350.3 27.4 344.45 24.1 A 24.848 24.848 0 0 0 339.809 22.073 A 27.738 27.738 0 0 0 331.3 20.8 A 31.325 31.325 0 0 0 329.72 20.839 A 26.169 26.169 0 0 0 318.1 24.1 Q 312.2 27.4 308.8 33.5 A 26.023 26.023 0 0 0 306.051 41.09 A 35.006 35.006 0 0 0 305.4 48 A 34.82 34.82 0 0 0 305.665 52.354 A 27.451 27.451 0 0 0 308.75 62.15 Q 312.1 68.3 318 71.75 Z M 260.3 74 L 251.3 74 L 251.3 22 L 260.3 22 L 260.3 74 Z M 331.3 67.2 Q 339.2 67.2 343.6 61.85 A 18.802 18.802 0 0 0 347.419 53.76 A 27.105 27.105 0 0 0 348 48 Q 348 42.8 345.8 38.45 A 19.198 19.198 0 0 0 341.628 32.881 A 18.17 18.17 0 0 0 339.85 31.45 Q 336.1 28.8 331.3 28.8 A 19.249 19.249 0 0 0 326.074 29.472 A 14.037 14.037 0 0 0 319 34 A 17.878 17.878 0 0 0 315.326 41.374 Q 314.6 44.306 314.6 47.8 Q 314.6 53 316.8 57.45 A 19.437 19.437 0 0 0 320.33 62.49 A 17.627 17.627 0 0 0 322.75 64.55 Q 326.5 67.2 331.3 67.2 Z M 90.4 60.7 L 90.4 32.8 Q 87.7 30.9 84.45 29.75 Q 81.2 28.6 77.6 28.6 A 15.924 15.924 0 0 0 72.629 29.354 A 14.024 14.024 0 0 0 69.15 31.05 A 16.301 16.301 0 0 0 64.131 36.474 A 19.962 19.962 0 0 0 63.4 37.85 A 20.663 20.663 0 0 0 61.647 43.527 A 27.678 27.678 0 0 0 61.3 48 Q 61.3 53.6 63.4 57.95 A 17.602 17.602 0 0 0 66.506 62.496 A 15.697 15.697 0 0 0 69.2 64.75 Q 72.9 67.2 77.5 67.2 Q 81.3 67.2 84.7 65.35 Q 88.1 63.5 90.4 60.7 Z M 9.5 11.6 L 9.5 39.5 Q 10.6 39.637 12.031 39.751 A 96.255 96.255 0 0 0 13.4 39.85 Q 15.7 40 18.5 40 A 31.831 31.831 0 0 0 23.88 39.574 Q 26.759 39.08 29.063 38.011 A 15.221 15.221 0 0 0 32.3 36 A 12.896 12.896 0 0 0 37.155 26.558 A 17.32 17.32 0 0 0 37.2 25.3 A 14.452 14.452 0 0 0 36.439 20.507 A 12.136 12.136 0 0 0 32.5 15 A 15.462 15.462 0 0 0 27.419 12.336 Q 25.193 11.626 22.5 11.36 A 34.58 34.58 0 0 0 19.1 11.2 A 131.125 131.125 0 0 0 15.842 11.239 A 109.939 109.939 0 0 0 14 11.3 A 91.274 91.274 0 0 0 11.117 11.464 A 75.041 75.041 0 0 0 9.5 11.6 Z M 202.5 44.4 L 231 44.4 A 24.355 24.355 0 0 0 230.596 39.815 Q 230.1 37.231 228.996 35.207 A 12.422 12.422 0 0 0 227.2 32.7 A 12.488 12.488 0 0 0 220.239 28.924 A 18.395 18.395 0 0 0 216.7 28.6 A 13.58 13.58 0 0 0 211.588 29.535 A 12.524 12.524 0 0 0 207.1 32.65 Q 203.3 36.7 202.5 44.4 Z M 251.437 11.288 A 5.973 5.973 0 0 0 255.8 13.1 A 8.175 8.175 0 0 0 257.296 12.969 A 5.647 5.647 0 0 0 260.4 11.35 Q 262.1 9.6 262.1 6.8 A 7.26 7.26 0 0 0 262.1 6.719 A 6.06 6.06 0 0 0 260.25 2.35 A 7.395 7.395 0 0 0 260.192 2.293 A 6.059 6.059 0 0 0 255.8 0.5 A 8.264 8.264 0 0 0 254.144 0.658 A 5.661 5.661 0 0 0 251.2 2.2 A 5.588 5.588 0 0 0 249.729 4.832 A 7.987 7.987 0 0 0 249.5 6.8 A 5.992 5.992 0 0 0 249.992 9.219 A 6.643 6.643 0 0 0 251.35 11.2 A 7.466 7.466 0 0 0 251.437 11.288 Z" vector-effect="non-scaling-stroke"/></g></svg>